<svg xmlns="http://www.w3.org/2000/svg" width="1920" height="689.001" viewBox="0 0 1920 689.001">
  <g id="Subtraction_3" data-name="Subtraction 3" transform="translate(-398 5400)" fill="#819c2a">
    <path d="M 2317.50048828125 -4711.49951171875 L 398.5 -4711.49951171875 L 398.5 -5271.40478515625 C 403.3504028320313 -5274.16357421875 408.3204650878906 -5276.91259765625 413.2759704589844 -5279.578125 C 430.4254760742188 -5288.80517578125 448.6083374023438 -5297.69482421875 467.3193054199219 -5306.00048828125 C 486.0957336425781 -5314.3359375 505.808349609375 -5322.265625 525.9097900390625 -5329.56982421875 C 546.1471557617188 -5336.92431640625 567.2611694335938 -5343.82470703125 588.6654663085938 -5350.078125 C 610.2335815429688 -5356.38232421875 632.6197509765625 -5362.18359375 655.201904296875 -5367.3212890625 C 677.97998046875 -5372.50439453125 701.509521484375 -5377.13671875 725.1369018554688 -5381.08984375 C 749.0016479492188 -5385.08447265625 773.5452270507813 -5388.4794921875 798.08642578125 -5391.181640625 C 822.9297485351563 -5393.916015625 848.3595581054688 -5396.00341796875 873.6695556640625 -5397.38525390625 C 899.337158203125 -5398.78857421875 925.5230712890625 -5399.5 951.49951171875 -5399.5 C 981.0926513671875 -5399.5 1010.916931152344 -5398.576171875 1040.143310546875 -5396.75341796875 C 1068.862426757813 -5394.9609375 1097.677612304688 -5392.2568359375 1125.7890625 -5388.71533203125 C 1153.473754882813 -5385.2265625 1181.088623046875 -5380.845703125 1207.86572265625 -5375.6943359375 C 1234.324340820313 -5370.60400390625 1260.54736328125 -5364.64990234375 1285.806884765625 -5357.9970703125 C 1310.8388671875 -5351.40283203125 1335.477905273438 -5343.9775390625 1359.0400390625 -5335.927734375 C 1382.443603515625 -5327.931640625 1405.308349609375 -5319.13916015625 1426.999267578125 -5309.7939453125 C 1448.6142578125 -5300.48095703125 1469.51220703125 -5290.4248046875 1489.112670898438 -5279.90576171875 C 1508.70947265625 -5269.38818359375 1527.448608398438 -5258.171875 1544.808837890625 -5246.568359375 L 1544.965942382813 -5246.46337890625 L 1545.1533203125 -5246.48876953125 C 1570.862426757813 -5249.94921875 1597.280029296875 -5253.03173828125 1623.672119140625 -5255.6513671875 C 1650.38720703125 -5258.306640625 1677.796142578125 -5260.560546875 1705.138305664063 -5262.3505859375 C 1732.79931640625 -5264.1640625 1761.080688476563 -5265.54736328125 1789.196899414063 -5266.4619140625 C 1817.7001953125 -5267.3896484375 1846.736206054688 -5267.85986328125 1875.498779296875 -5267.85986328125 C 1907.01904296875 -5267.85986328125 1938.781616210938 -5267.296875 1969.90478515625 -5266.185546875 C 2000.5859375 -5265.091796875 2031.4306640625 -5263.4384765625 2061.582275390625 -5261.27197265625 C 2091.3271484375 -5259.1337890625 2121.09765625 -5256.4453125 2150.06689453125 -5253.28173828125 C 2178.75048828125 -5250.1474609375 2207.291015625 -5246.47900390625 2234.895263671875 -5242.37744140625 C 2262.882080078125 -5238.2197265625 2290.671142578125 -5233.5029296875 2317.50048828125 -5228.3564453125 L 2317.50048828125 -4711.49951171875 Z" stroke="none"/>
    <path d="M 2317.00048828125 -4711.99951171875 L 2317.00048828125 -5227.94287109375 C 2290.303466796875 -5233.05810546875 2262.660888671875 -5237.7470703125 2234.822021484375 -5241.88330078125 C 2207.223876953125 -5245.9833984375 2178.689697265625 -5249.6513671875 2150.0126953125 -5252.78466796875 C 2121.049560546875 -5255.94775390625 2091.284912109375 -5258.63525390625 2061.54638671875 -5260.7734375 C 2031.401000976563 -5262.939453125 2000.562377929688 -5264.59228515625 1969.886962890625 -5265.68603515625 C 1938.769775390625 -5266.796875 1907.013061523438 -5267.35986328125 1875.498779296875 -5267.35986328125 C 1846.74169921875 -5267.35986328125 1817.7109375 -5266.8896484375 1789.21337890625 -5265.96240234375 C 1761.102416992188 -5265.0478515625 1732.826416015625 -5263.6650390625 1705.1708984375 -5261.8515625 C 1677.83447265625 -5260.06201171875 1650.430908203125 -5257.80859375 1623.7216796875 -5255.15380859375 C 1597.3349609375 -5252.53515625 1570.92333984375 -5249.45263671875 1545.219970703125 -5245.9931640625 L 1544.84521484375 -5245.94287109375 L 1544.531005859375 -5246.15283203125 C 1527.18408203125 -5257.7470703125 1508.459106445313 -5268.955078125 1488.876220703125 -5279.46484375 C 1469.288330078125 -5289.97802734375 1448.4033203125 -5300.02734375 1426.801391601563 -5309.3349609375 C 1405.122436523438 -5318.6748046875 1382.269775390625 -5327.462890625 1358.878295898438 -5335.45458984375 C 1335.327392578125 -5343.50048828125 1310.69970703125 -5350.92236328125 1285.679565429688 -5357.513671875 C 1260.430908203125 -5364.1630859375 1234.218872070313 -5370.115234375 1207.771484375 -5375.20361328125 C 1181.004516601563 -5380.35302734375 1153.400756835938 -5384.73193359375 1125.726440429688 -5388.21923828125 C 1097.62548828125 -5391.75927734375 1068.820678710938 -5394.46240234375 1040.112426757813 -5396.25439453125 C 1010.895935058594 -5398.076171875 981.0823974609375 -5399 951.49951171875 -5399 C 925.5321655273438 -5399 899.35546875 -5398.28857421875 873.6966552734375 -5396.88623046875 C 848.3959350585938 -5395.50439453125 822.9752197265625 -5393.41796875 798.1411743164063 -5390.68408203125 C 773.6093139648438 -5387.9833984375 749.0750122070313 -5384.58984375 725.2192993164063 -5380.5966796875 C 701.6014404296875 -5376.64501953125 678.0816650390625 -5372.0146484375 655.3128662109375 -5366.833984375 C 632.740478515625 -5361.69873046875 610.3643188476563 -5355.8994140625 588.8057250976563 -5349.59814453125 C 567.4116821289063 -5343.34765625 546.307861328125 -5336.451171875 526.0805053710938 -5329.10009765625 C 505.9897766113281 -5321.7998046875 486.2878723144531 -5313.8740234375 467.5221557617188 -5305.54345703125 C 448.8226318359375 -5297.2431640625 430.6514282226563 -5288.35888671875 413.5128784179688 -5279.1376953125 C 408.64697265625 -5276.5205078125 403.7668762207031 -5273.822265625 399 -5271.11376953125 L 399 -4711.99951171875 L 2317.00048828125 -4711.99951171875 M 2318.00048828125 -4710.99853515625 L 2318.00048828125 -4710.99951171875 L 398 -4710.99951171875 L 398 -5271.69580078125 C 402.9466857910156 -5274.51171875 408.0064392089844 -5277.3115234375 413.0390625 -5280.0185546875 C 430.1988220214844 -5289.2509765625 448.3930969238281 -5298.146484375 467.1164245605469 -5306.45751953125 C 485.9061889648438 -5314.798828125 505.6297607421875 -5322.73291015625 525.7390747070313 -5330.0400390625 C 545.9854736328125 -5337.39794921875 567.1097412109375 -5344.30126953125 588.5252685546875 -5350.55810546875 C 610.10693359375 -5356.8662109375 632.5028686523438 -5362.669921875 655.0909423828125 -5367.80908203125 C 677.8707275390625 -5372.9921875 701.4100341796875 -5377.626953125 725.0543212890625 -5381.5830078125 C 748.93408203125 -5385.580078125 773.4871215820313 -5388.97607421875 798.0316772460938 -5391.67822265625 C 822.8892822265625 -5394.41455078125 848.328369140625 -5396.50244140625 873.6421508789063 -5397.884765625 C 899.3233642578125 -5399.28857421875 925.518310546875 -5400 951.49951171875 -5400 C 981.1007080078125 -5400 1010.935241699219 -5399.07568359375 1040.174560546875 -5397.25244140625 C 1068.902099609375 -5395.45947265625 1097.727905273438 -5392.75439453125 1125.851440429688 -5389.21142578125 C 1153.544799804688 -5385.7216796875 1181.170043945313 -5381.33935546875 1207.960205078125 -5376.185546875 C 1234.427368164063 -5371.09326171875 1260.66162109375 -5365.13671875 1285.934326171875 -5358.48046875 C 1310.973754882813 -5351.88427734375 1335.62451171875 -5344.4560546875 1359.20166015625 -5336.40087890625 C 1382.622680664063 -5328.39892578125 1405.499755859375 -5319.60107421875 1427.197143554688 -5310.25341796875 C 1448.822143554688 -5300.93603515625 1469.733154296875 -5290.8740234375 1489.348999023438 -5280.34619140625 C 1508.959716796875 -5269.8212890625 1527.712646484375 -5258.5966796875 1545.086669921875 -5246.984375 C 1570.7998046875 -5250.4453125 1597.2236328125 -5253.52880859375 1623.622802734375 -5256.14892578125 C 1650.345458984375 -5258.80517578125 1677.76025390625 -5261.0595703125 1705.105712890625 -5262.849609375 C 1732.7802734375 -5264.6640625 1761.067138671875 -5266.04736328125 1789.1806640625 -5266.9619140625 C 1817.71337890625 -5267.89013671875 1846.755004882813 -5268.35986328125 1875.498779296875 -5268.35986328125 C 1907.01220703125 -5268.35986328125 1938.781005859375 -5267.796875 1969.922607421875 -5266.685546875 C 2000.618530273438 -5265.5908203125 2031.469482421875 -5263.93701171875 2061.6181640625 -5261.77099609375 C 2091.384765625 -5259.630859375 2121.161376953125 -5256.94140625 2150.12109375 -5253.77880859375 C 2178.79345703125 -5250.64599609375 2207.34033203125 -5246.97705078125 2234.96875 -5242.8720703125 C 2263.096435546875 -5238.693359375 2291.032470703125 -5233.94873046875 2318.00048828125 -5228.76953125 L 2318.00048828125 -4710.99951171875 L 2318.00048828125 -4710.99853515625 Z" stroke="none" fill="#707070"/>
  </g>
</svg>
